# xmcd
#
# Track frame offsets: 
#        150
#        17769
#        37891
#        51674
#        65659
#        82314
#        96976
#        118549
#        130467
#        146754
#        165899
#        179709
#
# Disc length: 2661 seconds
#
# Revision: 0
# Processed by: cddbd v1.5.2PL0 Copyright (c) Steve Scherf et al.
# Submitted via: ExactAudioCopy v0.99pb3
#
DISCID=b20a630c
DTITLE=Davis Coen - Magnolia Land
DYEAR=2009
DGENRE=Blues
TTITLE0=Tired and Lonesome
TTITLE1=Change In The Weather
TTITLE2=Anna Ann
TTITLE3=Country Girl Blues
TTITLE4=Nothing To Hold On To
TTITLE5=Eyes Like Diamonds
TTITLE6=Goin' Away Baby
TTITLE7=Wrong Side Of Town
TTITLE8=Natchez Burning
TTITLE9=Shake Your Googie
TTITLE10=Shortnin' Bread
TTITLE11=You Gonna Miss Me
EXTD=
EXTT0=
EXTT1=
EXTT2=
EXTT3=
EXTT4=
EXTT5=
EXTT6=
EXTT7=
EXTT8=
EXTT9=
EXTT10=
EXTT11=
PLAYORDER=
